<?xml version="1.0" encoding="UTF-8"?>
<svg width="48px" height="48px" viewBox="0 0 48 48" version="1.1" xmlns="http://www.w3.org/2000/svg" xmlns:xlink="http://www.w3.org/1999/xlink">
    <title>unity exchange symbol</title>
    <defs>
        <linearGradient x1="100%" y1="0%" x2="17.1847026%" y2="88.9855067%" id="linearGradient-1">
            <stop stop-color="#32C5FF" offset="0%"></stop>
            <stop stop-color="#B620E0" offset="53.3966278%"></stop>
            <stop stop-color="#FFAA12" offset="100%"></stop>
        </linearGradient>
        <filter x="6.7%" y="2.6%" width="86.6%" height="94.8%" filterUnits="objectBoundingBox" id="filter-2">
            <feGaussianBlur stdDeviation="0" in="SourceGraphic"></feGaussianBlur>
        </filter>
    </defs>
    <g id="unity-exchange-symbol" stroke="none" stroke-width="1" fill="none" fill-rule="evenodd">
        <path d="M28,2.30940108 L40.7846097,9.69059892 C43.2598183,11.1196613 44.7846097,13.7606774 44.7846097,16.6188022 L44.7846097,31.3811978 C44.7846097,34.2393226 43.2598183,36.8803387 40.7846097,38.3094011 L28,45.6905989 C25.5247914,47.1196613 22.4752086,47.1196613 20,45.6905989 L7.21539031,38.3094011 C4.7401817,36.8803387 3.21539031,34.2393226 3.21539031,31.3811978 L3.21539031,16.6188022 C3.21539031,13.7606774 4.7401817,11.1196613 7.21539031,9.69059892 L20,2.30940108 C22.4752086,0.880338717 25.5247914,0.880338717 28,2.30940108 Z" id="Polygon" fill="url(#linearGradient-1)" filter="url(#filter-2)"></path>
        <path d="M39,15.7035049 L39,15.7847453 C39,15.8142873 38.9927763,18.8264084 38.0285706,22.778703 C37.1386955,26.4261877 35.2280816,31.6498423 31.1796737,35.8226467 C31.0958161,35.901777 31.0142616,35.9735218 30.9284149,36.0431564 L30.9231803,36.0483263 C30.3629778,36.5073875 29.8353343,36.7300074 29.3098893,36.7300074 C28.5508782,36.7300074 27.8913238,36.2572303 27.3469297,35.7941598 C27.3343667,35.7845586 26.860011,35.34892 26.1817169,34.6399125 C25.396533,33.8201226 24.6133383,32.9222575 23.9182936,32.0423286 C23.8345407,31.9368216 23.7507877,31.8292044 23.6669301,31.7204266 C21.8056256,34.2685276 20.0016919,35.842693 19.9253721,35.9091625 C19.7797466,36.036826 19.6332837,36.1559435 19.4888099,36.2647213 C18.8271616,36.7595494 18.2335626,37 17.671371,37 C17.0410254,37 16.4580003,36.6856945 15.938732,36.0642579 C11.8390255,31.6424569 9.89805106,26.3386168 8.99236768,22.6680261 C8.01141134,18.6924144 8,15.7214411 8,15.6918991 L8,15.6117137 L9.39019415,15.6053833 C10.8256149,15.6053833 12.1990585,16.9949113 12.3288755,18.5796274 C12.7979967,24.3265971 15.938732,30.0850671 17.2671584,32.2944905 C17.2797213,32.3155919 17.3728965,32.4325992 17.4629309,32.5466524 L17.5698206,32.6817014 C17.698486,32.8431272 17.8523821,33.0392649 17.9560263,33.1796948 C18.031404,33.1174456 18.2335626,32.928588 18.7486432,32.362015 C19.8007896,31.2077678 21.4737546,29.240061 21.7375764,28.8676211 C21.7134974,28.7884908 21.5469337,28.5321086 21.3701103,28.2609555 C20.7639484,27.3293281 19.6352728,25.5958471 18.9088207,23.2957931 C18.0136065,20.4671488 18.0283679,17.6996985 18.9516394,15.0694074 C19.499279,13.471925 20.7953558,12.0972735 22.4201628,11.3903761 C23.0148087,11.1308288 23.6669301,11 24.3579965,11 C26.2214995,11 28.8021371,12.0718463 29.9442131,15.0957842 C30.94192,17.7334608 30.2824703,21.2194141 27.9843943,25.4576328 C27.9080744,25.6000674 27.6955513,25.9735624 27.4599962,26.3818747 C26.1753307,25.2001956 25.46029,23.7969517 25.803677,22.1183343 C27.1050931,19.2875798 27.037986,17.5625393 26.6800469,16.5633874 C26.3125808,15.5378588 25.6037169,15.1579278 25.2133235,15.0219292 C24.9809091,14.9417439 24.7369786,14.9005961 24.4878136,14.9005961 C24.3066979,14.9005961 24.1244305,14.9226471 23.9464555,14.9660105 C23.4711576,15.0841784 23.0399346,15.3563866 22.7342364,15.7319918 C21.2935811,17.4939597 21.9019415,21.3439124 22.528937,22.9191329 C23.7256618,25.9208088 28.3027601,32.3377484 29.2375477,32.884275 C29.3182646,32.7682172 29.5266,32.458976 29.822876,31.9769142 C29.9799128,31.7225367 30.1547471,31.4546543 30.3399458,31.1718954 C31.7103533,29.0796903 33.7821917,25.9175381 34.9390292,18.199802 C35.1170042,17.0107374 35.8666977,16.1213128 36.9449122,15.8194571 C37.1982648,15.7478178 37.4695197,15.7108904 37.750092,15.7097298 L39,15.7035049" id="Fill-5" fill="#FFFFFF"></path>
    </g>
</svg>